<?xml version="1.0" encoding="UTF-8"?>
<svg xmlns="http://www.w3.org/2000/svg" width="1200pt" height="1000.53467pt" viewBox="0 0 1200 1000.53467" data-source-format="obj" data-source-page="1">
  <title>Wavefront OBJ 3D Model</title>
  <metadata id="docsvg-metadata">{"page":1,"nodes":2,"warnings":[]}</metadata>
  <rect x="0" y="0" width="1200" height="1000.53467" fill="#FFFFFF" data-role="page-background"/>
  <path id="obj-background" d="M 0 0 L 1200.000 0 L 1200.000 1000.535 L 0 1000.535 Z" fill-rule="nonzero" transform="matrix(1 0 0 1 0 0)" fill="#0f172a" fill-opacity="1" stroke="none" data-semantic-role="obj:background"/>
  <g id="obj-mesh" transform="matrix(1 0 0 1 0 0)" opacity="1" data-semantic-role="obj:mesh">
    <path id="" d="M 600.000 333.512 L 1033.244 583.645 L 600.000 166.756 Z" fill-rule="nonzero" transform="matrix(1 0 0 1 0 0)" fill="#0f304f" fill-opacity="1" stroke="#38bdf8" stroke-opacity="1" stroke-width="0.5" stroke-linecap="round" stroke-linejoin="round" stroke-miterlimit="4"/>
    <path id="" d="M 166.756 583.645 L 600.000 333.512 L 600.000 166.756 Z" fill-rule="nonzero" transform="matrix(1 0 0 1 0 0)" fill="#2677c4" fill-opacity="1" stroke="#38bdf8" stroke-opacity="1" stroke-width="0.5" stroke-linecap="round" stroke-linejoin="round" stroke-miterlimit="4"/>
    <path id="" d="M 600.000 333.512 L 1033.244 583.645 L 600.000 833.779 L 166.756 583.645 Z" fill-rule="nonzero" transform="matrix(1 0 0 1 0 0)" fill="#236fb6" fill-opacity="1" stroke="#38bdf8" stroke-opacity="1" stroke-width="0.5" stroke-linecap="round" stroke-linejoin="round" stroke-miterlimit="4"/>
    <path id="" d="M 1033.244 583.645 L 600.000 833.779 L 600.000 166.756 Z" fill-rule="nonzero" transform="matrix(1 0 0 1 0 0)" fill="#0f304f" fill-opacity="1" stroke="#38bdf8" stroke-opacity="1" stroke-width="0.5" stroke-linecap="round" stroke-linejoin="round" stroke-miterlimit="4"/>
    <path id="" d="M 600.000 833.779 L 166.756 583.645 L 600.000 166.756 Z" fill-rule="nonzero" transform="matrix(1 0 0 1 0 0)" fill="#2677c4" fill-opacity="1" stroke="#38bdf8" stroke-opacity="1" stroke-width="0.5" stroke-linecap="round" stroke-linejoin="round" stroke-miterlimit="4"/>
  </g>
</svg>
