0
SECTION
2
HEADER
9
$ACADVER
1
AC1009
0
ENDSEC
0
SECTION
2
TABLES
0
TABLE
2
LAYER
70
4
0
LAYER
2
WALLS
70
0
62
7
6
CONTINUOUS
0
LAYER
2
DOORS
70
0
62
1
6
CONTINUOUS
0
LAYER
2
FURNITURE
70
0
62
3
6
CONTINUOUS
0
LAYER
2
TEXT
70
0
62
4
6
CONTINUOUS
0
ENDTAB
0
ENDSEC
0
SECTION
2
ENTITIES
0
LINE
8
WALLS
10
0.0
20
0.0
11
400.0
21
0.0
0
LINE
8
WALLS
10
400.0
20
0.0
11
400.0
21
300.0
0
LINE
8
WALLS
10
400.0
20
300.0
11
0.0
21
300.0
0
LINE
8
WALLS
10
0.0
20
300.0
11
0.0
21
0.0
0
LINE
8
WALLS
10
150.0
20
0.0
11
150.0
21
300.0
0
LINE
8
DOORS
10
150.0
20
80.0
11
190.0
21
120.0
0
ARC
8
DOORS
10
150.0
20
80.0
40
40.0
50
0.0
51
90.0
0
CIRCLE
8
FURNITURE
10
280.0
20
150.0
40
45.0
0
TEXT
8
TEXT
10
50.0
20
160.0
40
14.0
1
CONFERENCE ROOM
0
TEXT
8
TEXT
10
230.0
20
250.0
40
14.0
1
OFFICE 101
0
ENDSEC
0
EOF
